{
  "header": {
    "keySignatures": [
      {
        "key": "C",
        "scale": "major",
        "ticks": 0
      }
    ],
    "meta": [],
    "name": "IMSLP220145-WIMA.b098-i2v01",
    "ppq": 960,
    "tempos": [
      {
        "bpm": 20,
        "ticks": 0
      }
    ],
    "timeSignatures": [
      {
        "ticks": 0,
        "timeSignature": [
          4,
          4
        ],
        "measures": 0
      }
    ]
  },
  "tracks": [
    {
      "channel": 0,
      "controlChanges": {},
      "pitchBends": [],
      "instrument": {
        "family": "piano",
        "number": 0,
        "name": "acoustic grand piano"
      },
      "name": "",
      "notes": [],
      "endOfTrackTicks": 1
    },
    {
      "channel": 0,
      "controlChanges": {},
      "pitchBends": [],
      "instrument": {
        "family": "piano",
        "number": 0,
        "name": "acoustic grand piano"
      },
      "name": "",
      "notes": [],
      "endOfTrackTicks": 1
    },
    {
      "channel": 2,
      "controlChanges": {
        "7": [
          {
            "number": 7,
            "ticks": 0,
            "time": 0,
            "value": 0.7480314960629921
          }
        ],
        "10": [
          {
            "number": 10,
            "ticks": 0,
            "time": 0,
            "value": 0.49606299212598426
          }
        ],
        "64": [
          {
            "number": 64,
            "ticks": 0,
            "time": 0,
            "value": 0
          }
        ],
        "91": [
          {
            "number": 91,
            "ticks": 0,
            "time": 0,
            "value": 0.3779527559055118
          }
        ],
        "121": [
          {
            "number": 121,
            "ticks": 0,
            "time": 0,
            "value": 0
          }
        ]
      },
      "pitchBends": [],
      "instrument": {
        "family": "piano",
        "number": 6,
        "name": "harpsichord"
      },
      "name": "Harpsichord",
      "notes": [
        {
          "duration": 3,
          "durationTicks": 960,
          "midi": 36,
          "name": "C2",
          "ticks": 0,
          "time": 0,
          "velocity": 0.6377952755905512
        },
        {
          "duration": 3,
          "durationTicks": 960,
          "midi": 48,
          "name": "C3",
          "ticks": 960,
          "time": 3,
          "velocity": 0.5984251968503937
        },
        {
          "duration": 3,
          "durationTicks": 960,
          "midi": 36,
          "name": "C2",
          "ticks": 1920,
          "time": 6,
          "velocity": 0.6220472440944882
        },
        {
          "duration": 3,
          "durationTicks": 960,
          "midi": 48,
          "name": "C3",
          "ticks": 2880,
          "time": 9,
          "velocity": 0.5984251968503937
        },
        {
          "duration": 3,
          "durationTicks": 960,
          "midi": 36,
          "name": "C2",
          "ticks": 3840,
          "time": 12,
          "velocity": 0.6377952755905512
        },
        {
          "duration": 3,
          "durationTicks": 960,
          "midi": 48,
          "name": "C3",
          "ticks": 4800,
          "time": 15,
          "velocity": 0.5984251968503937
        },
        {
          "duration": 3,
          "durationTicks": 960,
          "midi": 36,
          "name": "C2",
          "ticks": 5760,
          "time": 18,
          "velocity": 0.6220472440944882
        },
        {
          "duration": 3,
          "durationTicks": 960,
          "midi": 48,
          "name": "C3",
          "ticks": 6720,
          "time": 21,
          "velocity": 0.5984251968503937
        },
        {
          "duration": 3,
          "durationTicks": 960,
          "midi": 36,
          "name": "C2",
          "ticks": 7680,
          "time": 24,
          "velocity": 0.6377952755905512
        },
        {
          "duration": 3,
          "durationTicks": 960,
          "midi": 48,
          "name": "C3",
          "ticks": 8640,
          "time": 27,
          "velocity": 0.5984251968503937
        },
        {
          "duration": 3,
          "durationTicks": 960,
          "midi": 36,
          "name": "C2",
          "ticks": 9600,
          "time": 30,
          "velocity": 0.6220472440944882
        },
        {
          "duration": 3,
          "durationTicks": 960,
          "midi": 48,
          "name": "C3",
          "ticks": 10560,
          "time": 33,
          "velocity": 0.5984251968503937
        },
        {
          "duration": 3,
          "durationTicks": 960,
          "midi": 36,
          "name": "C2",
          "ticks": 11520,
          "time": 36,
          "velocity": 0.6377952755905512
        },
        {
          "duration": 3,
          "durationTicks": 960,
          "midi": 48,
          "name": "C3",
          "ticks": 12480,
          "time": 39,
          "velocity": 0.5984251968503937
        },
        {
          "duration": 3,
          "durationTicks": 960,
          "midi": 36,
          "name": "C2",
          "ticks": 13440,
          "time": 42,
          "velocity": 0.6220472440944882
        },
        {
          "duration": 3,
          "durationTicks": 960,
          "midi": 48,
          "name": "C3",
          "ticks": 14400,
          "time": 45,
          "velocity": 0.5984251968503937
        },
        {
          "duration": 3,
          "durationTicks": 960,
          "midi": 38,
          "name": "D2",
          "ticks": 15360,
          "time": 48,
          "velocity": 0.6377952755905512
        },
        {
          "duration": 3,
          "durationTicks": 960,
          "midi": 50,
          "name": "D3",
          "ticks": 16320,
          "time": 51,
          "velocity": 0.5984251968503937
        },
        {
          "duration": 3,
          "durationTicks": 960,
          "midi": 43,
          "name": "G2",
          "ticks": 17280,
          "time": 54,
          "velocity": 0.6220472440944882
        },
        {
          "duration": 3,
          "durationTicks": 960,
          "midi": 55,
          "name": "G3",
          "ticks": 18240,
          "time": 57,
          "velocity": 0.5984251968503937
        },
        {
          "duration": 3,
          "durationTicks": 960,
          "midi": 43,
          "name": "G2",
          "ticks": 19200,
          "time": 60,
          "velocity": 0.6377952755905512
        },
        {
          "duration": 3,
          "durationTicks": 960,
          "midi": 55,
          "name": "G3",
          "ticks": 20160,
          "time": 63,
          "velocity": 0.5984251968503937
        },
        {
          "duration": 3,
          "durationTicks": 960,
          "midi": 43,
          "name": "G2",
          "ticks": 21120,
          "time": 66,
          "velocity": 0.6220472440944882
        },
        {
          "duration": 3,
          "durationTicks": 960,
          "midi": 50,
          "name": "D3",
          "ticks": 22080,
          "time": 69,
          "velocity": 0.5984251968503937
        },
        {
          "duration": 3,
          "durationTicks": 960,
          "midi": 43,
          "name": "G2",
          "ticks": 23040,
          "time": 72,
          "velocity": 0.6377952755905512
        },
        {
          "duration": 3,
          "durationTicks": 960,
          "midi": 55,
          "name": "G3",
          "ticks": 24000,
          "time": 75,
          "velocity": 0.5984251968503937
        },
        {
          "duration": 3,
          "durationTicks": 960,
          "midi": 43,
          "name": "G2",
          "ticks": 24960,
          "time": 78,
          "velocity": 0.6220472440944882
        },
        {
          "duration": 3,
          "durationTicks": 960,
          "midi": 55,
          "name": "G3",
          "ticks": 25920,
          "time": 81,
          "velocity": 0.5984251968503937
        },
        {
          "duration": 3,
          "durationTicks": 960,
          "midi": 38,
          "name": "D2",
          "ticks": 26880,
          "time": 84,
          "velocity": 0.6377952755905512
        },
        {
          "duration": 3,
          "durationTicks": 960,
          "midi": 50,
          "name": "D3",
          "ticks": 27840,
          "time": 87,
          "velocity": 0.5984251968503937
        },
        {
          "duration": 3,
          "durationTicks": 960,
          "midi": 38,
          "name": "D2",
          "ticks": 28800,
          "time": 90,
          "velocity": 0.6220472440944882
        },
        {
          "duration": 3,
          "durationTicks": 960,
          "midi": 50,
          "name": "D3",
          "ticks": 29760,
          "time": 93,
          "velocity": 0.5984251968503937
        },
        {
          "duration": 3,
          "durationTicks": 960,
          "midi": 43,
          "name": "G2",
          "ticks": 30720,
          "time": 96,
          "velocity": 0.6377952755905512
        },
        {
          "duration": 3,
          "durationTicks": 960,
          "midi": 55,
          "name": "G3",
          "ticks": 31680,
          "time": 99,
          "velocity": 0.5984251968503937
        },
        {
          "duration": 3,
          "durationTicks": 960,
          "midi": 43,
          "name": "G2",
          "ticks": 32640,
          "time": 102,
          "velocity": 0.6220472440944882
        },
        {
          "duration": 3,
          "durationTicks": 960,
          "midi": 55,
          "name": "G3",
          "ticks": 33600,
          "time": 105,
          "velocity": 0.5984251968503937
        },
        {
          "duration": 3,
          "durationTicks": 960,
          "midi": 36,
          "name": "C2",
          "ticks": 34560,
          "time": 108,
          "velocity": 0.6377952755905512
        },
        {
          "duration": 3,
          "durationTicks": 960,
          "midi": 48,
          "name": "C3",
          "ticks": 35520,
          "time": 111,
          "velocity": 0.5984251968503937
        },
        {
          "duration": 3,
          "durationTicks": 960,
          "midi": 36,
          "name": "C2",
          "ticks": 36480,
          "time": 114,
          "velocity": 0.6220472440944882
        },
        {
          "duration": 3,
          "durationTicks": 960,
          "midi": 48,
          "name": "C3",
          "ticks": 37440,
          "time": 117,
          "velocity": 0.5984251968503937
        },
        {
          "duration": 3,
          "durationTicks": 960,
          "midi": 38,
          "name": "D2",
          "ticks": 38400,
          "time": 120,
          "velocity": 0.6377952755905512
        },
        {
          "duration": 3,
          "durationTicks": 960,
          "midi": 50,
          "name": "D3",
          "ticks": 39360,
          "time": 123,
          "velocity": 0.5984251968503937
        },
        {
          "duration": 3,
          "durationTicks": 960,
          "midi": 38,
          "name": "D2",
          "ticks": 40320,
          "time": 126,
          "velocity": 0.6220472440944882
        },
        {
          "duration": 3,
          "durationTicks": 960,
          "midi": 50,
          "name": "D3",
          "ticks": 41280,
          "time": 129,
          "velocity": 0.5984251968503937
        },
        {
          "duration": 3,
          "durationTicks": 960,
          "midi": 38,
          "name": "D2",
          "ticks": 42240,
          "time": 132,
          "velocity": 0.6377952755905512
        },
        {
          "duration": 3,
          "durationTicks": 960,
          "midi": 50,
          "name": "D3",
          "ticks": 43200,
          "time": 135,
          "velocity": 0.5984251968503937
        },
        {
          "duration": 3,
          "durationTicks": 960,
          "midi": 38,
          "name": "D2",
          "ticks": 44160,
          "time": 138,
          "velocity": 0.6220472440944882
        },
        {
          "duration": 3,
          "durationTicks": 960,
          "midi": 50,
          "name": "D3",
          "ticks": 45120,
          "time": 141,
          "velocity": 0.5984251968503937
        },
        {
          "duration": 3,
          "durationTicks": 960,
          "midi": 40,
          "name": "E2",
          "ticks": 46080,
          "time": 144,
          "velocity": 0.6377952755905512
        },
        {
          "duration": 3,
          "durationTicks": 960,
          "midi": 52,
          "name": "E3",
          "ticks": 47040,
          "time": 147,
          "velocity": 0.5984251968503937
        },
        {
          "duration": 3,
          "durationTicks": 960,
          "midi": 33,
          "name": "A1",
          "ticks": 48000,
          "time": 150,
          "velocity": 0.6220472440944882
        },
        {
          "duration": 3,
          "durationTicks": 960,
          "midi": 45,
          "name": "A2",
          "ticks": 48960,
          "time": 153,
          "velocity": 0.5984251968503937
        },
        {
          "duration": 3,
          "durationTicks": 960,
          "midi": 33,
          "name": "A1",
          "ticks": 49920,
          "time": 156,
          "velocity": 0.6377952755905512
        },
        {
          "duration": 3,
          "durationTicks": 960,
          "midi": 45,
          "name": "A2",
          "ticks": 50880,
          "time": 159,
          "velocity": 0.5984251968503937
        },
        {
          "duration": 3,
          "durationTicks": 960,
          "midi": 40,
          "name": "E2",
          "ticks": 51840,
          "time": 162,
          "velocity": 0.6220472440944882
        },
        {
          "duration": 3,
          "durationTicks": 960,
          "midi": 52,
          "name": "E3",
          "ticks": 52800,
          "time": 165,
          "velocity": 0.5984251968503937
        },
        {
          "duration": 3,
          "durationTicks": 960,
          "midi": 33,
          "name": "A1",
          "ticks": 53760,
          "time": 168,
          "velocity": 0.6377952755905512
        },
        {
          "duration": 3,
          "durationTicks": 960,
          "midi": 45,
          "name": "A2",
          "ticks": 54720,
          "time": 171,
          "velocity": 0.5984251968503937
        },
        {
          "duration": 3,
          "durationTicks": 960,
          "midi": 33,
          "name": "A1",
          "ticks": 55680,
          "time": 174,
          "velocity": 0.6220472440944882
        },
        {
          "duration": 3,
          "durationTicks": 960,
          "midi": 45,
          "name": "A2",
          "ticks": 56640,
          "time": 177,
          "velocity": 0.5984251968503937
        },
        {
          "duration": 3,
          "durationTicks": 960,
          "midi": 38,
          "name": "D2",
          "ticks": 57600,
          "time": 180,
          "velocity": 0.6377952755905512
        },
        {
          "duration": 3,
          "durationTicks": 960,
          "midi": 50,
          "name": "D3",
          "ticks": 58560,
          "time": 183,
          "velocity": 0.5984251968503937
        },
        {
          "duration": 3,
          "durationTicks": 960,
          "midi": 38,
          "name": "D2",
          "ticks": 59520,
          "time": 186,
          "velocity": 0.6220472440944882
        },
        {
          "duration": 3,
          "durationTicks": 960,
          "midi": 50,
          "name": "D3",
          "ticks": 60480,
          "time": 189,
          "velocity": 0.5984251968503937
        },
        {
          "duration": 3,
          "durationTicks": 960,
          "midi": 43,
          "name": "G2",
          "ticks": 61440,
          "time": 192,
          "velocity": 0.6377952755905512
        },
        {
          "duration": 3,
          "durationTicks": 960,
          "midi": 55,
          "name": "G3",
          "ticks": 62400,
          "time": 195,
          "velocity": 0.5984251968503937
        },
        {
          "duration": 3,
          "durationTicks": 960,
          "midi": 43,
          "name": "G2",
          "ticks": 63360,
          "time": 198,
          "velocity": 0.6220472440944882
        },
        {
          "duration": 3,
          "durationTicks": 960,
          "midi": 55,
          "name": "G3",
          "ticks": 64320,
          "time": 201,
          "velocity": 0.5984251968503937
        },
        {
          "duration": 3,
          "durationTicks": 960,
          "midi": 36,
          "name": "C2",
          "ticks": 65280,
          "time": 204,
          "velocity": 0.6377952755905512
        },
        {
          "duration": 3,
          "durationTicks": 960,
          "midi": 48,
          "name": "C3",
          "ticks": 66240,
          "time": 207,
          "velocity": 0.5984251968503937
        },
        {
          "duration": 3,
          "durationTicks": 960,
          "midi": 36,
          "name": "C2",
          "ticks": 67200,
          "time": 210,
          "velocity": 0.6220472440944882
        },
        {
          "duration": 3,
          "durationTicks": 960,
          "midi": 48,
          "name": "C3",
          "ticks": 68160,
          "time": 213,
          "velocity": 0.5984251968503937
        },
        {
          "duration": 3,
          "durationTicks": 960,
          "midi": 41,
          "name": "F2",
          "ticks": 69120,
          "time": 216,
          "velocity": 0.6377952755905512
        },
        {
          "duration": 3,
          "durationTicks": 960,
          "midi": 53,
          "name": "F3",
          "ticks": 70080,
          "time": 219,
          "velocity": 0.5984251968503937
        },
        {
          "duration": 3,
          "durationTicks": 960,
          "midi": 41,
          "name": "F2",
          "ticks": 71040,
          "time": 222,
          "velocity": 0.6220472440944882
        },
        {
          "duration": 3,
          "durationTicks": 960,
          "midi": 53,
          "name": "F3",
          "ticks": 72000,
          "time": 225,
          "velocity": 0.5984251968503937
        },
        {
          "duration": 3,
          "durationTicks": 960,
          "midi": 36,
          "name": "C2",
          "ticks": 72960,
          "time": 228,
          "velocity": 0.6377952755905512
        },
        {
          "duration": 3,
          "durationTicks": 960,
          "midi": 48,
          "name": "C3",
          "ticks": 73920,
          "time": 231,
          "velocity": 0.5984251968503937
        },
        {
          "duration": 3,
          "durationTicks": 960,
          "midi": 36,
          "name": "C2",
          "ticks": 74880,
          "time": 234,
          "velocity": 0.6220472440944882
        },
        {
          "duration": 3,
          "durationTicks": 960,
          "midi": 48,
          "name": "C3",
          "ticks": 75840,
          "time": 237,
          "velocity": 0.5984251968503937
        },
        {
          "duration": 3,
          "durationTicks": 960,
          "midi": 36,
          "name": "C2",
          "ticks": 76800,
          "time": 240,
          "velocity": 0.6377952755905512
        },
        {
          "duration": 3,
          "durationTicks": 960,
          "midi": 41,
          "name": "F2",
          "ticks": 77760,
          "time": 243,
          "velocity": 0.5984251968503937
        },
        {
          "duration": 3,
          "durationTicks": 960,
          "midi": 41,
          "name": "F2",
          "ticks": 78720,
          "time": 246,
          "velocity": 0.6220472440944882
        },
        {
          "duration": 3,
          "durationTicks": 960,
          "midi": 43,
          "name": "G2",
          "ticks": 79680,
          "time": 249,
          "velocity": 0.5984251968503937
        },
        {
          "duration": 12,
          "durationTicks": 3840,
          "midi": 36,
          "name": "C2",
          "ticks": 80640,
          "time": 252,
          "velocity": 0.6377952755905512
        }
      ],
      "endOfTrackTicks": 84481
    }
  ]
}